<?xml version="1.0" standalone="no"?>
<!DOCTYPE svg PUBLIC "-//W3C//DTD SVG 20010904//EN"
 "http://www.w3.org/TR/2001/REC-SVG-20010904/DTD/svg10.dtd">
<svg version="1.0" xmlns="http://www.w3.org/2000/svg"
 width="192.000000pt" height="192.000000pt" viewBox="0 0 192.000000 192.000000"
 preserveAspectRatio="xMidYMid meet">

<g transform="translate(0.000000,192.000000) scale(0.100000,-0.100000)"
fill="#cbd5e1" stroke="none">
<path d="M625 1691 c-99 -49 -149 -105 -184 -209 -35 -103 -26 -167 51 -352 6
-14 14 -34 18 -45 4 -11 13 -33 19 -48 15 -38 14 -62 -4 -77 -24 -20 -75 -131
-90 -197 -56 -232 62 -480 279 -590 74 -38 140 -53 231 -53 145 0 267 53 371
162 75 78 121 171 140 282 12 70 12 93 0 164 -16 91 -52 178 -97 234 l-29 37
31 68 c17 37 42 92 56 122 52 113 64 185 42 266 -28 107 -95 189 -194 236
l-60 29 -260 0 -260 0 -60 -29z m603 -20 c9 -5 30 -15 46 -22 15 -7 45 -31 66
-53 98 -101 117 -236 53 -376 -12 -25 -40 -85 -63 -134 l-41 -89 31 -41 c79
-106 104 -181 103 -316 -1 -116 -17 -173 -72 -259 -58 -90 -202 -201 -261
-201 -11 0 -22 -4 -25 -10 -9 -15 -213 -12 -257 3 -21 7 -41 16 -44 20 -4 4
-14 7 -22 7 -8 0 -43 20 -78 45 -60 43 -134 133 -161 195 -6 14 -15 36 -21 50
-6 14 -15 55 -20 92 -18 117 16 251 89 353 31 43 32 46 20 87 -7 24 -19 57
-26 73 -97 226 -108 311 -52 423 24 50 120 142 147 142 10 0 22 5 25 10 8 13
538 14 563 1z"/>
<path d="M715 1616 c-22 -6 -49 -17 -60 -24 -22 -15 -27 -15 65 8 19 5 117 10
218 10 114 0 182 4 182 10 0 14 -354 11 -405 -4z"/>
<path d="M1207 1591 c22 -11 55 -34 72 -52 34 -35 57 -33 25 2 -29 33 -91 69
-116 69 -17 0 -13 -5 19 -19z"/>
<path d="M695 1507 c-22 -12 -50 -37 -62 -56 -42 -62 -40 -86 18 -230 46 -114
55 -131 75 -131 13 0 26 5 29 10 3 6 17 10 30 10 13 0 27 5 30 10 4 6 54 10
118 10 87 0 124 -4 167 -20 30 -11 58 -20 62 -20 9 0 101 181 117 232 23 70
-16 151 -90 188 -34 18 -59 20 -246 20 -197 0 -210 -2 -248 -23z m486 -32 c37
-20 69 -70 69 -110 0 -33 -86 -214 -105 -221 -7 -3 -39 2 -71 12 -70 20 -235
15 -302 -10 l-43 -16 -25 58 c-43 100 -46 107 -55 124 -25 49 1 126 54 158 29
18 51 20 240 20 168 0 214 -3 238 -15z"/>
<path d="M553 1488 c-26 -56 -34 -108 -23 -150 21 -78 38 -122 48 -126 6 -2
-1 30 -15 70 -27 78 -27 133 2 191 17 35 18 37 7 37 -5 0 -13 -10 -19 -22z"/>
<path d="M1250 935 c0 -3 9 -15 19 -27 25 -26 66 -110 80 -163 14 -51 14 -149
0 -200 -16 -58 -55 -135 -89 -175 -16 -19 -27 -37 -24 -39 15 -15 86 92 123
182 14 36 14 228 0 264 -26 63 -34 80 -64 120 -27 38 -45 53 -45 38z"/>
<path d="M868 907 c-59 -16 -129 -76 -160 -136 -56 -108 -29 -257 60 -331 20
-17 42 -30 49 -30 7 0 13 -4 13 -9 0 -5 15 -12 33 -16 67 -15 197 -4 197 16 0
5 6 9 13 9 25 0 86 61 111 112 33 66 36 170 7 235 -55 119 -197 186 -323 150z
m178 -29 c53 -25 108 -77 131 -126 20 -42 22 -156 3 -202 -36 -88 -142 -160
-235 -160 -93 0 -202 74 -235 160 -20 48 -18 158 2 201 59 124 215 184 334
127z"/>
<path d="M521 598 c-1 -54 3 -69 36 -145 13 -31 33 -53 33 -36 0 4 -6 20 -14
35 -21 40 -38 95 -46 152 l-8 51 -1 -57z"/>
<path d="M652 325 c20 -19 42 -35 49 -35 14 0 -61 69 -76 69 -5 1 7 -15 27
-34z"/>
<path d="M750 260 c0 -4 8 -10 18 -14 83 -29 112 -36 147 -35 l40 1 -45 8
c-25 4 -71 17 -102 28 -32 11 -58 17 -58 12z"/>
</g>
</svg>
